[2026-03-14 19:34:01] [INFO] Jarvis Desktop launcher started.
[2026-03-14 19:34:01] [INFO] Runtime log path: C:\Jarvis\logs\runtime_2026-03-14_19-34-01.txt
[2026-03-14 19:34:01] [INFO] Launcher executable: C:\Users\anden\AppData\Local\Python\pythoncore-3.14-64\pythonw.exe
[2026-03-14 19:34:01] [INFO] Root directory: C:\Jarvis
[2026-03-14 19:34:01] [INFO] Target script: C:\Jarvis\jarvis_desktop_test.py
[2026-03-14 19:34:01] [INFO] Diagnostics script: C:\Jarvis\desktop\jarvis_diagnostics.pyw
[2026-03-14 19:34:01] [INFO] Recovery attempts allowed: 3
[2026-03-14 19:34:01] [INFO] Voice hook ready: C:\Jarvis\jarvis_voice.py
[2026-03-14 19:34:01] [INFO] Starting desktop renderer process. attempt=1
[2026-03-14 19:34:01] [INFO] Child executable: C:\Users\anden\AppData\Local\Python\pythoncore-3.14-64\pythonw.exe
[2026-03-14 19:34:01] [STDOUT] Jarvis Desktop Concept 1 - Version 1.02
[2026-03-14 19:34:01] [STDOUT] Hotkey: Ctrl + Alt + End
[2026-03-14 19:34:01] [STDERR] Traceback (most recent call last):
[2026-03-14 19:34:01] [STDERR]   File "C:\Jarvis\jarvis_desktop_test.py", line 44, in <module>
[2026-03-14 19:34:01] [STDERR]     raise SystemExit(main())
[2026-03-14 19:34:01] [STDERR]                      ~~~~^^
[2026-03-14 19:34:01] [STDERR]   File "C:\Jarvis\jarvis_desktop_test.py", line 36, in main
[2026-03-14 19:34:01] [STDERR]     raise RuntimeError("Jarvis test crash triggered intentionally")
[2026-03-14 19:34:01] [STDERR] RuntimeError: Jarvis test crash triggered intentionally
[2026-03-14 19:34:01] [INFO] Desktop renderer exited. exit_code=1
[2026-03-14 19:34:01] [WARN] Recovery attempt 1/3
[2026-03-14 19:34:03] [INFO] Starting desktop renderer process. attempt=2
[2026-03-14 19:34:03] [INFO] Child executable: C:\Users\anden\AppData\Local\Python\pythoncore-3.14-64\pythonw.exe
[2026-03-14 19:34:03] [STDOUT] Jarvis Desktop Concept 1 - Version 1.02
[2026-03-14 19:34:03] [STDOUT] Hotkey: Ctrl + Alt + End
[2026-03-14 19:34:03] [STDERR] Traceback (most recent call last):
[2026-03-14 19:34:03] [STDERR]   File "C:\Jarvis\jarvis_desktop_test.py", line 44, in <module>
[2026-03-14 19:34:03] [STDERR]     raise SystemExit(main())
[2026-03-14 19:34:03] [STDERR]                      ~~~~^^
[2026-03-14 19:34:03] [STDERR]   File "C:\Jarvis\jarvis_desktop_test.py", line 36, in main
[2026-03-14 19:34:03] [STDERR]     raise RuntimeError("Jarvis test crash triggered intentionally")
[2026-03-14 19:34:03] [STDERR] RuntimeError: Jarvis test crash triggered intentionally
[2026-03-14 19:34:03] [INFO] Desktop renderer exited. exit_code=1
[2026-03-14 19:34:03] [WARN] Recovery attempt 2/3
[2026-03-14 19:34:04] [INFO] Starting desktop renderer process. attempt=3
[2026-03-14 19:34:04] [INFO] Child executable: C:\Users\anden\AppData\Local\Python\pythoncore-3.14-64\pythonw.exe
[2026-03-14 19:34:05] [STDOUT] Jarvis Desktop Concept 1 - Version 1.02
[2026-03-14 19:34:05] [STDOUT] Hotkey: Ctrl + Alt + End
[2026-03-14 19:34:05] [STDERR] Traceback (most recent call last):
[2026-03-14 19:34:05] [STDERR]   File "C:\Jarvis\jarvis_desktop_test.py", line 44, in <module>
[2026-03-14 19:34:05] [STDERR]     raise SystemExit(main())
[2026-03-14 19:34:05] [STDERR]                      ~~~~^^
[2026-03-14 19:34:05] [STDERR]   File "C:\Jarvis\jarvis_desktop_test.py", line 36, in main
[2026-03-14 19:34:05] [STDERR]     raise RuntimeError("Jarvis test crash triggered intentionally")
[2026-03-14 19:34:05] [STDERR] RuntimeError: Jarvis test crash triggered intentionally
[2026-03-14 19:34:05] [INFO] Desktop renderer exited. exit_code=1
[2026-03-14 19:34:05] [ERROR] Crash log written: C:\Jarvis\logs\crash\crash_2026-03-14_19-34-05.txt
[2026-03-14 19:34:05] [INFO] Trying voice line 'Uhm..... Sir, I seem to be malfunctioning.' using voice --text --mode
[2026-03-14 19:34:10] [VOICE_STDOUT] WARNING: malfunction post-process failed, using clean TTS: No module named 'pydub'
[2026-03-14 19:34:10] [VOICE_STDERR] [mp3 @ 000002CB301E7100] Estimating duration from bitrate, this may be inaccurate
[2026-03-14 19:34:10] [VOICE_STDERR] Input #0, mp3, from 'C:/Users/anden/AppData/Local/Temp/tmpug4kdnh2.mp3':
[2026-03-14 19:34:10] [VOICE_STDERR]   Duration: 00:00:04.06, start: 0.000000, bitrate: 48 kb/s
[2026-03-14 19:34:10] [VOICE_STDERR]   Stream #0:0: Audio: mp3 (mp3float), 24000 Hz, mono, fltp, 48 kb/s
[2026-03-14 19:34:10] [INFO] Voice line completed: Uhm..... Sir, I seem to be malfunctioning.
[2026-03-14 19:34:10] [INFO] Failure voice step 1/3 success=True line=Uhm..... Sir, I seem to be malfunctioning.
[2026-03-14 19:34:11] [INFO] Trying voice line 'Attempting restart.' using voice --text --mode
[2026-03-14 19:34:14] [VOICE_STDOUT] WARNING: malfunction post-process failed, using clean TTS: No module named 'pydub'
[2026-03-14 19:34:14] [VOICE_STDERR] [mp3 @ 00000147CAAFAD00] Estimating duration from bitrate, this may be inaccurate
[2026-03-14 19:34:14] [VOICE_STDERR] Input #0, mp3, from 'C:/Users/anden/AppData/Local/Temp/tmp3e_io5il.mp3':
[2026-03-14 19:34:14] [VOICE_STDERR]   Duration: 00:00:02.11, start: 0.000000, bitrate: 48 kb/s
[2026-03-14 19:34:14] [VOICE_STDERR]   Stream #0:0: Audio: mp3 (mp3float), 24000 Hz, mono, fltp, 48 kb/s
[2026-03-14 19:34:14] [INFO] Voice line completed: Attempting restart.
[2026-03-14 19:34:14] [INFO] Failure voice step 2/3 success=True line=Attempting restart.
[2026-03-14 19:34:15] [INFO] Trying voice line 'Restart failed.' using voice --text --mode
[2026-03-14 19:34:18] [VOICE_STDOUT] WARNING: malfunction post-process failed, using clean TTS: No module named 'pydub'
[2026-03-14 19:34:18] [VOICE_STDERR] [mp3 @ 000001B0D3E78D00] Estimating duration from bitrate, this may be inaccurate
[2026-03-14 19:34:18] [VOICE_STDERR] Input #0, mp3, from 'C:/Users/anden/AppData/Local/Temp/tmpr5cbt4zr.mp3':
[2026-03-14 19:34:18] [VOICE_STDERR]   Duration: 00:00:02.02, start: 0.000000, bitrate: 48 kb/s
[2026-03-14 19:34:18] [VOICE_STDERR]   Stream #0:0: Audio: mp3 (mp3float), 24000 Hz, mono, fltp, 48 kb/s
[2026-03-14 19:34:18] [INFO] Voice line completed: Restart failed.
[2026-03-14 19:34:18] [INFO] Failure voice step 3/3 success=True line=Restart failed.
[2026-03-14 19:34:19] [INFO] Diagnostics process launched.
